# xmcd
#
# Track frame offsets:
#	150
#	13330
#	32365
#	46358
#	58168
#	67776
#	80298
#	95177
#	108574
#	122033
#	133787
#	144846
#	154780
#	171553
#
# Disc length: 2441
#
# Revision: 3
# Processed by: cddbd v1.5.1PL0 Copyright (c) Steve Scherf et al.
# Submitted via: CDex 1.51
# Normalized: r2:TSWAP
#
DISCID=c009870e
DTITLE=Varous - The Best of Country
DYEAR=2004
DGENRE=Country
TTITLE0=Lynn Anderson - Rose Garden
TTITLE1=Juice Newton - Angel of The Morning
TTITLE2=Michael Johnson - Bluer Than Blue
TTITLE3=Billy Joe Royal - Let Your Love Flow
TTITLE4=Lynn Anderson - Snowbird
TTITLE5=Wanda Jackson - Crazy
TTITLE6=Don Gibson - Woman
TTITLE7=Patti Page - Tennessee Waltz
TTITLE8=Johnny Paycheck - Somebody Loves Me
TTITLE9=David Houston - I Can't Stop Loving You
TTITLE10=David Houston - Sea of Love
TTITLE11=Ray Price - Make The World Go Away
TTITLE12=Lynn Anderson - Blue Bayou
TTITLE13=Skeeter Davis - I Forgot More Than You'll Ever Know
EXTD=YEAR: 2004
EXTT0=
EXTT1=
EXTT2=
EXTT3=
EXTT4=
EXTT5=
EXTT6=
EXTT7=
EXTT8=
EXTT9=
EXTT10=
EXTT11=
EXTT12=
EXTT13=
PLAYORDER=
